<svg width="12" height="20" viewBox="0 0 12 20" fill="none" xmlns="http://www.w3.org/2000/svg">
<path d="M9.99999 19.5C9.60252 19.4986 9.22164 19.3405 8.93999 19.06L0.939992 11.06C0.65662 10.7801 0.497131 10.3983 0.497131 10C0.497131 9.60167 0.65662 9.21993 0.939992 8.94L8.93999 0.939997C9.31393 0.53869 9.8771 0.373498 10.4086 0.509225C10.94 0.644953 11.355 1.05995 11.4908 1.59142C11.6265 2.12289 11.4613 2.68606 11.06 3.06L4.11999 10L11.06 16.94C11.3434 17.2199 11.5029 17.6017 11.5029 18C11.5029 18.3983 11.3434 18.7801 11.06 19.06C10.7783 19.3405 10.3975 19.4986 9.99999 19.5Z" fill="#0C0C0D"/>
</svg>
