<svg width="20" height="20" viewBox="0 0 20 20" fill="none" xmlns="http://www.w3.org/2000/svg">
<path d="M0 8.16777C0 12.6758 3.65323 16.3374 8.147 16.3374C9.81815 16.3374 11.3518 15.8223 12.6305 14.953L17.2285 19.572C17.5164 19.8607 17.8977 19.9982 18.299 19.9982C19.1507 19.9982 19.7598 19.3527 19.7598 18.5086C19.7598 18.1116 19.6145 17.7411 19.3395 17.4653L14.7769 12.8635C15.7321 11.5458 16.2939 9.92572 16.2939 8.16777C16.2939 3.66158 12.6407 0 8.147 0C3.65323 0 0 3.66158 0 8.16777ZM2.29524 8.16777C2.29524 4.83439 4.8228 2 8.147 2C11.4711 2 13.9378 4.83439 13.9378 8.16777C13.9378 11.503 11.4711 14 8.147 14C4.8228 14 2.29524 11.503 2.29524 8.16777Z" fill="#5E5E66"/>
</svg>
